<svg id="圖層_1" data-name="圖層 1" xmlns="http://www.w3.org/2000/svg" viewBox="0 0 210.19 80.53"><defs><style>.cls-1{fill:#00698f;}.cls-2{fill:#95c566;}</style></defs><title>logo</title><polygon class="cls-1" points="0 7.56 9.93 7.56 16.07 26.48 16.2 26.48 21.34 7.56 31.52 7.56 37.1 26.48 37.23 26.48 42.88 7.56 52.3 7.56 41.57 37.72 32.39 37.72 26.12 17.67 26 17.67 20.41 37.72 11.04 37.72 0 7.56"/><rect class="cls-1" x="54.27" width="9.92" height="7.56"/><rect class="cls-2" x="54.27" y="7.56" width="9.92" height="30.16"/><path class="cls-1" d="M85.39,16.43A6.64,6.64,0,0,0,80,13.89c-1.55,0-3.42.68-3.42,2.48,0,4.47,15.7.68,15.7,12.16,0,7.69-7.45,9.93-13.9,9.93-4.22,0-8.87-1.05-11.85-4.09l5.65-6.27a8.09,8.09,0,0,0,6.58,3.29c2.11,0,4.22-.56,4.22-2.17,0-4.84-15.7-.75-15.7-12.23,0-7.07,6.33-10.18,12.66-10.18,4,0,8.38,1,11.17,4Z"/><path class="cls-1" d="M115.07,15h-8.19V25.06c0,3.23.38,5.59,4.41,5.59,1,0,3-.13,3.79-.87v7.76a19.29,19.29,0,0,1-6.52.93c-6.21,0-11-2.54-11-9.12V15h-6V7.56h6V0h9.31V7.56h8.19Z"/><path class="cls-1" d="M118.34,7.56h9.31V12.4h.13c2-3.66,4.59-5.59,8.69-5.59a12.35,12.35,0,0,1,3.1.31v8.5a14.38,14.38,0,0,0-4-.62c-7.08,0-7.95,4.1-7.95,10.12v12.6h-9.31Z"/><path class="cls-1" d="M147.87,22.64c0-4.53,2.79-7.63,7.45-7.63s7.44,3.1,7.44,7.63-2.79,7.63-7.44,7.63-7.45-3.1-7.45-7.63m-9.3,0c0,9.62,7.45,15.82,16.75,15.82s16.75-6.2,16.75-15.82S164.62,6.81,155.32,6.81,138.56,13,138.56,22.64Z"/><path class="cls-1" d="M174.71,7.56h8.94v4.09h.12a9.78,9.78,0,0,1,8.81-4.84c9.44,0,11.17,6.21,11.17,14.27V37.72h-9.3V22.95c0-3.47-.07-7.94-4.84-7.94S184,18.79,184,22.7v15h-9.31Z"/><path class="cls-1" d="M210.19,3.79a2.85,2.85,0,0,1-.87,2.09,3,3,0,0,1-5.05-2.09,2.85,2.85,0,0,1,.86-2.09,3,3,0,0,1,5.06,2.09m-.55,0a2.31,2.31,0,0,0-.71-1.7,2.42,2.42,0,0,0-3.41,0,2.32,2.32,0,0,0-.7,1.7,2.41,2.41,0,0,0,4.11,1.71,2.29,2.29,0,0,0,.71-1.71m-.84-.59a.77.77,0,0,1-.88.86l.78,1.34H208L207.26,4h-.64V5.39H206V2.21h1.55a1.5,1.5,0,0,1,.92.25.87.87,0,0,1,.33.73m-.63-.09a.34.34,0,0,0-.21-.36,1.67,1.67,0,0,0-.56-.07h-.78v.91h.95a.83.83,0,0,0,.45-.1A.41.41,0,0,0,208.17,3.1Z"/><path class="cls-1" d="M74.88,80H70.63l-3.3-14h-.07L64,80H59.68L54.51,59.5h4.3l3.07,14h.06l3.38-14h4l3.34,14.17h.06l3.2-14.17h4.2Z"/><path class="cls-1" d="M86.31,62.87H82.57V59.5h3.74Zm-3.74,2.29h3.74V80H82.57Z"/><path class="cls-1" d="M92.39,75.22a2.31,2.31,0,0,0,.89,1.9,3.39,3.39,0,0,0,2,.6,3,3,0,0,0,1.66-.44,1.55,1.55,0,0,0,.83-1.46,1.52,1.52,0,0,0-1.09-1.4,20,20,0,0,0-3.18-.9l-.77-.25a5.8,5.8,0,0,1-.79-.24,6.08,6.08,0,0,1-1.4-.71,3.33,3.33,0,0,1-1-1.15,3,3,0,0,1-.41-1.6,4.55,4.55,0,0,1,.56-2.35,3.71,3.71,0,0,1,1.34-1.47A5.31,5.31,0,0,1,93,65a11.73,11.73,0,0,1,2.14-.2,7.7,7.7,0,0,1,4,1,4.65,4.65,0,0,1,2,3.76H97.58a2.08,2.08,0,0,0-.79-1.63A3.83,3.83,0,0,0,95,67.53a4.12,4.12,0,0,0-1.36.24,1.11,1.11,0,0,0-.74,1.13,1.17,1.17,0,0,0,.35.87,2.91,2.91,0,0,0,1,.54q.61.2,1.39.37l1.52.43a10.5,10.5,0,0,1,1.65.46,4.63,4.63,0,0,1,1.38.77,3.53,3.53,0,0,1,1,1.18,4.2,4.2,0,0,1,.33,1.75,4.52,4.52,0,0,1-1.92,4,8.33,8.33,0,0,1-4.32,1.12,8.1,8.1,0,0,1-4.36-1.17,4.86,4.86,0,0,1-2.08-4Z"/><path class="cls-1" d="M108.92,65.17h2.76v2.72h-2.76v7.39a2,2,0,0,0,.33,1.38,1.6,1.6,0,0,0,1.27.35,6.18,6.18,0,0,0,1.17-.11v3.16a16.11,16.11,0,0,1-2.2.14,7.57,7.57,0,0,1-1.6-.17,3.57,3.57,0,0,1-1.4-.49,2.42,2.42,0,0,1-.92-1.12,3.61,3.61,0,0,1-.38-1.76V67.89H102.9V65.17h2.28V60.72h3.74Z"/><path class="cls-1" d="M113.8,65.16h3.56v2.76h.05a4.64,4.64,0,0,1,4.36-3.11,2.56,2.56,0,0,1,.83.14v3.78a6,6,0,0,0-1.36-.14A3.19,3.19,0,0,0,118.36,70a6,6,0,0,0-.83,3.39V80H113.8Z"/><path class="cls-1" d="M123.49,72.64a8.16,8.16,0,0,1,1.95-5.71,6.59,6.59,0,0,1,5.12-2.11,6.75,6.75,0,0,1,5.18,2.11,8.37,8.37,0,0,1,1.9,5.71,8.16,8.16,0,0,1-1.9,5.64,6.69,6.69,0,0,1-5.18,2.16,6.53,6.53,0,0,1-5.12-2.16A8,8,0,0,1,123.49,72.64Zm3.74,0a6.64,6.64,0,0,0,.71,3.24,2.67,2.67,0,0,0,2.61,1.5,2.71,2.71,0,0,0,2.65-1.5,7.19,7.19,0,0,0,.7-3.24,7.36,7.36,0,0,0-.7-3.31,2.73,2.73,0,0,0-2.65-1.46,2.69,2.69,0,0,0-2.61,1.46A6.8,6.8,0,0,0,127.23,72.64Z"/><path class="cls-1" d="M140.61,65.16h3.56v2.08h.08a4.84,4.84,0,0,1,1.87-1.87,5,5,0,0,1,2.31-.55q2.92,0,4,1.65a8.31,8.31,0,0,1,1,4.45V80h-3.74V71.65q0-3.64-2.41-3.65-3-.06-2.92,4.25V80h-3.74Z"/><path class="cls-1" d="M164.7,59.5H169V80H164.7Z"/><path class="cls-1" d="M176.93,63.28h-5.65V59.5h15.6v3.78h-5.67V80h-4.28Z"/><path class="cls-1" d="M192.3,73.25a3.34,3.34,0,0,0,1.29,2.89,4.75,4.75,0,0,0,2.93.9,7,7,0,0,0,1.22-.11,4.08,4.08,0,0,0,1.2-.41,2.5,2.5,0,0,0,.93-.8,2,2,0,0,0,.36-1.24,2.17,2.17,0,0,0-.45-1.42,3.68,3.68,0,0,0-1.31-.83,31.74,31.74,0,0,0-3.87-1.15,13.36,13.36,0,0,1-2-.75,8,8,0,0,1-1.83-1.07,4.82,4.82,0,0,1-1.28-1.65,5.15,5.15,0,0,1-.5-2.39,5.41,5.41,0,0,1,2.27-4.68A8,8,0,0,1,196,59a9.22,9.22,0,0,1,5.31,1.5q2.22,1.54,2.27,5.1h-4a3,3,0,0,0-1.13-2.5,4.8,4.8,0,0,0-2.59-.6,3.81,3.81,0,0,0-1.92.49,2,2,0,0,0-.94,1.84,1.66,1.66,0,0,0,.23.91,2,2,0,0,0,.82.69,28.94,28.94,0,0,0,4.6,1.51,14.11,14.11,0,0,1,1.48.41,7,7,0,0,1,1.87.94,5.33,5.33,0,0,1,1.63,1.76,6.58,6.58,0,0,1-1.34,7.58,8.44,8.44,0,0,1-5.89,1.9,9,9,0,0,1-5.62-1.78,6.56,6.56,0,0,1-2.47-5.51Z"/></svg>